HIERARCHY
ROOT Hips
{
 OFFSET 0.000000 0.000000 0.000000
 CHANNELS 6 Xposition Yposition Zposition Yrotation Xrotation Zrotation
 JOINT Chest
 {
  OFFSET 0.000000 9.585900 0.002600
  CHANNELS 3 Yrotation Xrotation Zrotation
  JOINT Chest2
  {
   OFFSET 0.000000 9.601200 -0.005300
   CHANNELS 3 Yrotation Xrotation Zrotation
   JOINT Chest3
   {
    OFFSET 0.000000 9.561800 0.000000
    CHANNELS 3 Yrotation Xrotation Zrotation
    JOINT Chest4
    {
     OFFSET 0.000000 9.552100 0.000000
     CHANNELS 3 Yrotation Xrotation Zrotation
     JOINT Neck
     {
      OFFSET 0.000000 14.453000 0.000000
      CHANNELS 3 Yrotation Xrotation Zrotation
      JOINT Head
      {
       OFFSET 0.000000 8.936500 -0.011300
       CHANNELS 3 Yrotation Xrotation Zrotation
       End Site
       {
        OFFSET 0.000000 17.073600 -0.006000
       }
      }
     }
     JOINT RightCollar
     {
      OFFSET -2.921100 9.558500 0.000000
      CHANNELS 3 Yrotation Xrotation Zrotation
      JOINT RightShoulder
      {
       OFFSET -13.519700 0.000000 0.000000
       CHANNELS 3 Yrotation Xrotation Zrotation
       JOINT RightElbow
       {
        OFFSET 0.000000 -29.696600 0.000000
        CHANNELS 3 Yrotation Xrotation Zrotation
        JOINT RightWrist
        {
         OFFSET 0.000000 -24.004700 0.000000
         CHANNELS 3 Yrotation Xrotation Zrotation
         End Site
         {
          OFFSET 0.000000 -17.728500 0.000000
         }
        }
       }
      }
     }
     JOINT LeftCollar
     {
      OFFSET 2.921100 9.558500 0.000000
      CHANNELS 3 Yrotation Xrotation Zrotation
      JOINT LeftShoulder
      {
       OFFSET 13.519700 0.000000 0.000000
       CHANNELS 3 Yrotation Xrotation Zrotation
       JOINT LeftElbow
       {
        OFFSET 0.000000 -29.696600 0.000000
        CHANNELS 3 Yrotation Xrotation Zrotation
        JOINT LeftWrist
        {
         OFFSET 0.000000 -24.004700 0.000000
         CHANNELS 3 Yrotation Xrotation Zrotation
         End Site
         {
          OFFSET 0.000000 -17.728500 0.000000
         }
        }
       }
      }
     }
    }
   }
  }
 }
 JOINT RightHip
 {
  OFFSET -7.771700 -0.012900 -0.001300
  CHANNELS 3 Yrotation Xrotation Zrotation
  JOINT RightKnee
  {
   OFFSET 0.000000 -40.869800 0.001200
   CHANNELS 3 Yrotation Xrotation Zrotation
   JOINT RightAnkle
   {
    OFFSET 0.000000 -39.717900 0.002100
    CHANNELS 3 Yrotation Xrotation Zrotation
    JOINT RightToe
    {
     OFFSET 0.000000 -4.965400 11.033500
     CHANNELS 3 Yrotation Xrotation Zrotation
     End Site
     {
      OFFSET 0.000000 -1.423100 5.872300
     }
    }
   }
  }
 }
 JOINT LeftHip
 {
  OFFSET 7.771700 -0.012900 -0.001300
  CHANNELS 3 Yrotation Xrotation Zrotation
  JOINT LeftKnee
  {
   OFFSET 0.000000 -40.869800 0.001200
   CHANNELS 3 Yrotation Xrotation Zrotation
   JOINT LeftAnkle
   {
    OFFSET 0.000000 -39.717900 0.002100
    CHANNELS 3 Yrotation Xrotation Zrotation
    JOINT LeftToe
    {
     OFFSET 0.000000 -4.965400 11.033500
     CHANNELS 3 Yrotation Xrotation Zrotation
     End Site
     {
      OFFSET 0.000000 -1.423100 5.872300
     }
    }
   }
  }
 }
}
MOTION
Frames: 9
Frame Time: 0.008333
-65.569522 57.785967 11.695183 178.620095 -50.664939 -3.441268 3.405038 22.197416 3.036883 1.757904 12.717651 1.535860 2.276647 15.883031 2.017028 1.756628 12.709231 1.539064 -0.185497 15.589620 3.271057 -1.532864 -6.768038 6.165320 2.126477 3.628855 0.109570 -2.390653 -14.031380 -9.000477 -47.411792 -40.082662 111.534603 0.741702 4.055603 -11.413063 -9.609424 -0.091409 -0.828695 -0.477468 -10.854975 13.781627 63.642841 -52.450293 -115.182609 2.536271 2.756023 -2.081648 6.497271 -20.482200 -2.119368 -33.581362 74.281284 -38.268925 7.089240 -15.928266 13.491303 -0.008929 0.008171 0.001865 -8.080705 -18.517725 5.266582 88.010554 80.740700 87.015475 0.767501 -21.409874 -19.073815 0.002828 0.003452 0.007117
-65.570066 57.785482 11.695087 178.622013 -50.652611 -3.447236 3.402645 22.191641 3.030548 1.758973 12.711284 1.534505 2.278171 15.880514 2.020701 1.750139 12.701521 1.524848 -0.173201 15.559575 3.287646 -1.524803 -6.773286 6.179281 2.142602 3.632299 0.095829 -2.409328 -14.025220 -8.971885 -47.415561 -40.096045 111.537411 0.751876 4.060977 -11.410717 -9.607672 -0.085143 -0.819908 -0.475390 -10.849365 13.783765 63.690436 -52.467088 -115.224247 2.529797 2.761220 -2.090522 6.497584 -20.494078 -2.115963 -33.568430 74.283031 -38.253336 7.083696 -15.932564 13.491797 0.007712 0.007424 0.002368 -8.081668 -18.527891 5.270990 87.971255 80.741981 86.977241 0.771288 -21.405699 -19.072781 0.003380 0.004745 0.006166
-65.571077 57.784980 11.695176 178.623524 -50.639544 -3.451602 3.400807 22.186720 3.008611 1.764815 12.702325 1.554968 2.261926 15.869836 1.982529 1.760786 12.702205 1.538640 -0.158840 15.525660 3.305151 -1.502704 -6.860219 6.214991 2.159941 3.635213 0.086494 -2.428623 -14.016879 -8.941666 -47.418691 -40.116544 111.544870 0.759172 4.066322 -11.409349 -9.603062 -0.077739 -0.807657 -0.474680 -10.843486 13.784968 63.708167 -52.476724 -115.232453 2.511148 2.749032 -2.110410 6.498184 -20.509955 -2.110996 -33.578498 74.282424 -38.265818 7.083273 -15.934905 13.497163 0.002685 -0.000177 0.000507 -8.079001 -18.539134 5.277648 87.933492 80.744454 86.940673 0.767410 -21.400235 -19.066736 0.000135 0.006823 0.004460
-65.572120 57.785149 11.694950 178.627485 -50.630822 -3.459072 3.399598 22.181675 3.000680 1.763850 12.697869 1.551962 2.264000 15.867357 1.985936 1.759904 12.700072 1.536147 -0.154826 15.482788 3.311612 -1.477166 -6.958733 6.250099 2.168710 3.634881 0.067286 -2.441501 -14.011748 -8.916175 -47.435387 -40.159911 111.550296 0.732665 4.067701 -11.397801 -9.631310 -0.104625 -0.824612 -0.447063 -10.810650 13.805266 63.768385 -52.499642 -115.291899 2.524203 2.750133 -2.114998 6.499227 -20.518896 -2.105796 -33.589642 74.279531 -38.274913 7.085195 -15.937835 13.500917 0.006044 -0.002092 -0.000205 -8.083309 -18.547535 5.283205 87.935960 80.746395 86.943907 0.762131 -21.393862 -19.063144 0.001728 0.001597 0.003129
-65.573618 57.786034 11.694308 178.630136 -50.627092 -3.463981 3.398792 22.179658 2.997406 1.760391 12.696490 1.538885 2.267660 15.864465 1.992427 1.758813 12.698123 1.533841 -0.148015 15.448794 3.319930 -1.455480 -7.054276 6.278664 2.177133 3.634495 0.048408 -2.462408 -14.006351 -8.907282 -47.452528 -40.177811 111.578769 0.703957 4.068002 -11.391515 -9.629810 -0.108950 -0.820767 -0.464952 -10.802748 13.790914 63.878220 -52.531981 -115.393582 2.559785 2.789107 -2.080274 6.497570 -20.521985 -2.103854 -33.592324 74.278149 -38.276686 7.087360 -15.939355 13.502092 0.007537 -0.005618 -0.000126 -8.086599 -18.551064 5.285821 87.941838 80.749102 86.950131 0.762330 -21.391863 -19.062056 0.002865 -0.000448 0.002609
-65.575697 57.786090 11.694436 178.635955 -50.616492 -3.468736 3.393943 22.170784 2.991868 1.756333 12.694472 1.528341 2.252907 15.854393 1.968690 1.769971 12.699906 1.542529 -0.130626 15.399795 3.338792 -1.433915 -7.141407 6.306931 2.193472 3.638474 0.038495 -2.475297 -14.000615 -8.886425 -47.466140 -40.206667 111.594862 0.703133 4.075853 -11.392723 -9.618722 -0.107776 -0.808170 -0.461830 -10.793245 13.790386 63.918926 -52.538111 -115.443789 2.567404 2.797336 -2.065795 6.495076 -20.531953 -2.104972 -33.589347 74.277088 -38.276420 7.094243 -15.943175 13.506238 -0.002108 -0.005377 -0.002067 -8.093316 -18.562052 5.287792 87.932076 80.748729 86.936055 0.761383 -21.386321 -19.058235 0.002298 -0.001777 0.002023
-65.576873 57.785362 11.695403 178.652778 -50.598455 -3.487660 3.383296 22.154997 2.984170 1.751700 12.689493 1.509672 2.260322 15.850794 1.979980 1.749312 12.684809 1.516299 -0.094701 15.346900 3.374873 -1.414053 -7.218720 6.335515 2.225457 3.656439 0.060450 -2.484811 -13.998200 -8.878388 -47.480766 -40.235077 111.607335 0.753698 4.082250 -11.399461 -9.622271 -0.109035 -0.798423 -0.431208 -10.767404 13.806937 63.931840 -52.542981 -115.462136 2.567089 2.778510 -2.073131 6.483777 -20.549497 -2.099215 -33.589984 74.274868 -38.279807 7.084478 -15.939867 13.514457 -0.000002 -0.007560 -0.003771 -8.108932 -18.579081 5.296774 87.940039 80.743638 86.942480 0.753929 -21.385908 -19.059495 0.002092 0.000320 0.004033
-65.577984 57.785764 11.695450 178.660631 -50.589137 -3.499306 3.384065 22.151637 2.968614 1.752088 12.682256 1.521398 2.254657 15.844892 1.966789 1.755037 12.684779 1.523100 -0.085382 15.293670 3.387545 -1.395916 -7.312647 6.365585 2.232615 3.660338 0.058094 -2.493404 -13.997216 -8.868583 -47.488364 -40.245565 111.616298 0.781364 4.091142 -11.394298 -9.621910 -0.107794 -0.791931 -0.433171 -10.766260 13.801235 63.936784 -52.551776 -115.463275 2.569076 2.762107 -2.085702 6.477590 -20.558448 -2.094267 -33.591503 74.274403 -38.281796 7.089932 -15.944068 13.517376 0.000372 -0.008966 -0.005136 -8.116336 -18.587245 5.302910 87.942107 80.739948 86.944946 0.752934 -21.384262 -19.062313 0.002335 0.001571 0.005309
-65.578816 57.786143 11.695482 178.667441 -50.579270 -3.510562 3.381743 22.144657 2.962050 1.754418 12.678808 1.530264 2.246471 15.839647 1.949191 1.765666 12.688100 1.537324 -0.083079 15.265910 3.391414 -1.375988 -7.431044 6.394644 2.235069 3.660661 -0.003180 -2.512388 -13.993848 -8.804134 -47.499102 -40.259160 111.620682 0.805893 4.102908 -11.392458 -9.626297 -0.112147 -0.794393 -0.433919 -10.761846 13.799514 63.971373 -52.559357 -115.503004 2.587420 2.742195 -2.104319 6.471671 -20.567277 -2.089550 -33.583773 74.276284 -38.272655 7.091997 -15.952134 13.515923 0.011901 -0.010737 -0.002460 -8.122746 -18.595947 5.310665 87.943922 80.737453 86.947708 0.749795 -21.385665 -19.064577 0.002902 0.004532 0.006276
